<svg width="20" height="18" viewBox="0 0 20 18" fill="none" xmlns="http://www.w3.org/2000/svg">
<path d="M10.32 10.7616C10.2496 10.6794 10.1622 10.6134 10.0639 10.5682C9.96561 10.523 9.85868 10.4996 9.75047 10.4996C9.64226 10.4996 9.53532 10.523 9.43701 10.5682C9.33871 10.6134 9.25135 10.6794 9.18094 10.7616L4.68094 16.0116C4.5875 16.1204 4.52726 16.2538 4.50735 16.3959C4.48743 16.538 4.50869 16.6828 4.56859 16.8131C4.62849 16.9435 4.72453 17.054 4.8453 17.1314C4.96608 17.2088 5.10653 17.25 5.25 17.25H14.25C14.3935 17.25 14.5339 17.2088 14.6547 17.1314C14.7755 17.054 14.8715 16.9435 14.9314 16.8131C14.9913 16.6828 15.0126 16.538 14.9927 16.3959C14.9727 16.2538 14.9125 16.1204 14.8191 16.0116L10.32 10.7616ZM6.88031 15.75L9.75 12.4022L12.6197 15.75H6.88031ZM19.5 2.25V12.75C19.5 13.3467 19.2629 13.919 18.841 14.341C18.419 14.7629 17.8467 15 17.25 15H16.5C16.3011 15 16.1103 14.921 15.9697 14.7803C15.829 14.6397 15.75 14.4489 15.75 14.25C15.75 14.0511 15.829 13.8603 15.9697 13.7197C16.1103 13.579 16.3011 13.5 16.5 13.5H17.25C17.4489 13.5 17.6397 13.421 17.7803 13.2803C17.921 13.1397 18 12.9489 18 12.75V2.25C18 2.05109 17.921 1.86032 17.7803 1.71967C17.6397 1.57902 17.4489 1.5 17.25 1.5H2.25C2.05109 1.5 1.86032 1.57902 1.71967 1.71967C1.57902 1.86032 1.5 2.05109 1.5 2.25V12.75C1.5 12.9489 1.57902 13.1397 1.71967 13.2803C1.86032 13.421 2.05109 13.5 2.25 13.5H3C3.19891 13.5 3.38968 13.579 3.53033 13.7197C3.67098 13.8603 3.75 14.0511 3.75 14.25C3.75 14.4489 3.67098 14.6397 3.53033 14.7803C3.38968 14.921 3.19891 15 3 15H2.25C1.65326 15 1.08097 14.7629 0.65901 14.341C0.237053 13.919 0 13.3467 0 12.75V2.25C0 1.65326 0.237053 1.08097 0.65901 0.65901C1.08097 0.237053 1.65326 0 2.25 0H17.25C17.8467 0 18.419 0.237053 18.841 0.65901C19.2629 1.08097 19.5 1.65326 19.5 2.25Z" fill="#FF7700"/>
<path d="M10.32 10.7616C10.2496 10.6794 10.1622 10.6134 10.0639 10.5682C9.96561 10.523 9.85868 10.4996 9.75047 10.4996C9.64226 10.4996 9.53532 10.523 9.43701 10.5682C9.33871 10.6134 9.25135 10.6794 9.18094 10.7616L4.68094 16.0116C4.5875 16.1204 4.52726 16.2538 4.50735 16.3959C4.48743 16.538 4.50869 16.6828 4.56859 16.8131C4.62849 16.9435 4.72453 17.054 4.8453 17.1314C4.96608 17.2088 5.10653 17.25 5.25 17.25H14.25C14.3935 17.25 14.5339 17.2088 14.6547 17.1314C14.7755 17.054 14.8715 16.9435 14.9314 16.8131C14.9913 16.6828 15.0126 16.538 14.9927 16.3959C14.9727 16.2538 14.9125 16.1204 14.8191 16.0116L10.32 10.7616ZM6.88031 15.75L9.75 12.4022L12.6197 15.75H6.88031ZM19.5 2.25V12.75C19.5 13.3467 19.2629 13.919 18.841 14.341C18.419 14.7629 17.8467 15 17.25 15H16.5C16.3011 15 16.1103 14.921 15.9697 14.7803C15.829 14.6397 15.75 14.4489 15.75 14.25C15.75 14.0511 15.829 13.8603 15.9697 13.7197C16.1103 13.579 16.3011 13.5 16.5 13.5H17.25C17.4489 13.5 17.6397 13.421 17.7803 13.2803C17.921 13.1397 18 12.9489 18 12.75V2.25C18 2.05109 17.921 1.86032 17.7803 1.71967C17.6397 1.57902 17.4489 1.5 17.25 1.5H2.25C2.05109 1.5 1.86032 1.57902 1.71967 1.71967C1.57902 1.86032 1.5 2.05109 1.5 2.25V12.75C1.5 12.9489 1.57902 13.1397 1.71967 13.2803C1.86032 13.421 2.05109 13.5 2.25 13.5H3C3.19891 13.5 3.38968 13.579 3.53033 13.7197C3.67098 13.8603 3.75 14.0511 3.75 14.25C3.75 14.4489 3.67098 14.6397 3.53033 14.7803C3.38968 14.921 3.19891 15 3 15H2.25C1.65326 15 1.08097 14.7629 0.65901 14.341C0.237053 13.919 0 13.3467 0 12.75V2.25C0 1.65326 0.237053 1.08097 0.65901 0.65901C1.08097 0.237053 1.65326 0 2.25 0H17.25C17.8467 0 18.419 0.237053 18.841 0.65901C19.2629 1.08097 19.5 1.65326 19.5 2.25Z" fill="var(--primary)"/>
</svg>
