<svg width="18" height="17" viewBox="0 0 18 17" fill="none" xmlns="http://www.w3.org/2000/svg">
<path d="M17.25 0H0.75C0.551088 0 0.360322 0.0790178 0.21967 0.21967C0.0790178 0.360322 0 0.551088 0 0.75V15C0 15.3978 0.158035 15.7794 0.43934 16.0607C0.720644 16.342 1.10218 16.5 1.5 16.5H5.25C5.64782 16.5 6.02936 16.342 6.31066 16.0607C6.59196 15.7794 6.75 15.3978 6.75 15V10.5H11.25V12C11.25 12.3978 11.408 12.7794 11.6893 13.0607C11.9706 13.342 12.3522 13.5 12.75 13.5H16.5C16.8978 13.5 17.2794 13.342 17.5607 13.0607C17.842 12.7794 18 12.3978 18 12V0.75C18 0.551088 17.921 0.360322 17.7803 0.21967C17.6397 0.0790178 17.4489 0 17.25 0ZM5.25 15H1.5V7.5H5.25V15ZM5.25 6H1.5V1.5H5.25V6ZM11.25 9H6.75V1.5H11.25V9ZM16.5 12H12.75V7.5H16.5V12ZM16.5 6H12.75V1.5H16.5V6Z" fill="var(--primary)"/>
<path d="M17.25 0H0.75C0.551088 0 0.360322 0.0790178 0.21967 0.21967C0.0790178 0.360322 0 0.551088 0 0.75V15C0 15.3978 0.158035 15.7794 0.43934 16.0607C0.720644 16.342 1.10218 16.5 1.5 16.5H5.25C5.64782 16.5 6.02936 16.342 6.31066 16.0607C6.59196 15.7794 6.75 15.3978 6.75 15V10.5H11.25V12C11.25 12.3978 11.408 12.7794 11.6893 13.0607C11.9706 13.342 12.3522 13.5 12.75 13.5H16.5C16.8978 13.5 17.2794 13.342 17.5607 13.0607C17.842 12.7794 18 12.3978 18 12V0.75C18 0.551088 17.921 0.360322 17.7803 0.21967C17.6397 0.0790178 17.4489 0 17.25 0ZM5.25 15H1.5V7.5H5.25V15ZM5.25 6H1.5V1.5H5.25V6ZM11.25 9H6.75V1.5H11.25V9ZM16.5 12H12.75V7.5H16.5V12ZM16.5 6H12.75V1.5H16.5V6Z" fill="var(--primary)"/>
</svg>
