<svg width="177" height="68" viewBox="0 0 177 68" fill="none" xmlns="http://www.w3.org/2000/svg">
<path fill-rule="evenodd" clip-rule="evenodd" d="M101.119 7.46061L174.504 134.496C180.254 144.421 173.066 156.809 161.634 156.809H14.8658C3.4338 156.809 -3.68554 144.421 1.99624 134.496L75.3803 7.46061C78.2554 2.46407 83.2527 0 88.2499 0C93.2471 0 98.2444 2.46407 101.119 7.46061ZM79.3507 9.71931L5.96664 136.823C4.11835 140.04 4.11835 143.873 5.96664 147.09C7.81494 150.307 11.1692 152.224 14.8658 152.224H161.634C165.331 152.224 168.685 150.307 170.533 147.09C172.381 143.873 172.381 140.04 170.533 136.823L97.1491 9.71931C95.3008 6.50236 91.9465 4.58588 88.2499 4.58588C84.5533 4.58588 81.199 6.50236 79.3507 9.71931Z" fill="url(#paint0_linear_1679_4749)"/>
<defs>
<linearGradient id="paint0_linear_1679_4749" x1="109544" y1="-142752" x2="92383" y2="-192893" gradientUnits="userSpaceOnUse">
<stop stop-color="#005F85"/>
<stop offset="1" stop-color="#013149"/>
</linearGradient>
</defs>
</svg>
