<svg width="14" height="128" viewBox="0 0 14 128" fill="none" xmlns="http://www.w3.org/2000/svg">
<path fill-rule="evenodd" clip-rule="evenodd" d="M113.037 8.9664L139.597 54.962C142.815 60.5061 142.815 67.2822 139.597 72.8263L113.037 118.822C109.888 124.366 103.932 127.788 97.5659 127.788H44.4446C38.0783 127.788 32.1911 124.366 28.9737 118.822L2.41305 72.8263C-0.804349 67.2822 -0.804349 60.5061 2.41305 54.962L28.9737 8.9664C32.1911 3.42228 38.0783 0 44.4446 0H97.5659C103.932 0 109.888 3.42228 113.037 8.9664ZM44.4446 3.08006C39.1735 3.08006 34.2447 5.88633 31.575 10.4722L5.01438 56.4678C2.41308 61.0537 2.41308 66.7347 5.01438 71.3205L31.575 117.316C34.2447 121.902 39.1735 124.708 44.4446 124.708H97.5659C102.837 124.708 107.766 121.902 110.436 117.316L136.996 71.3205C139.597 66.7347 139.597 61.0537 136.996 56.4678L110.436 10.4722C107.766 5.88633 102.837 3.08006 97.5659 3.08006H44.4446Z" fill="#F3F5F5"/>
</svg>
