<svg width="53" height="270" viewBox="0 0 53 270" fill="none" xmlns="http://www.w3.org/2000/svg">
<path fill-rule="evenodd" clip-rule="evenodd" d="M237.215 14.5105L298.277 120.191C303.411 129.157 303.411 140.245 298.277 149.212L237.215 254.892C232.012 263.859 222.428 269.403 212.092 269.403H90.0358C79.6306 269.403 70.1154 263.859 64.9128 254.892L3.85061 149.212C-1.28354 140.245 -1.28354 129.157 3.85061 120.191L64.9128 14.5105C70.1154 5.54412 79.6306 0 90.0358 0H212.092C222.428 0 232.012 5.54412 237.215 14.5105ZM90.0358 15.2634C85.1071 15.2634 80.589 17.8644 78.1246 22.108L17.0625 127.857C14.6666 132.1 14.6666 137.302 17.0625 141.546L78.1246 247.295C80.589 251.538 85.1071 254.139 90.0358 254.139H212.092C217.02 254.139 221.538 251.538 224.003 247.295L285.065 141.546C287.461 137.302 287.461 132.1 285.065 127.857L224.003 22.108C221.538 17.8644 217.02 15.2634 212.092 15.2634H90.0358Z" fill="url(#paint0_linear_1679_4751)"/>
<defs>
<linearGradient id="paint0_linear_1679_4751" x1="-434825" y1="234009" x2="-552510" y2="366801" gradientUnits="userSpaceOnUse">
<stop stop-color="#005F85"/>
<stop offset="1" stop-color="#013149"/>
</linearGradient>
</defs>
</svg>
