<svg width="120" height="109" viewBox="0 0 120 109" fill="none" xmlns="http://www.w3.org/2000/svg">
<path fill-rule="evenodd" clip-rule="evenodd" d="M96.1797 9.17176L116.853 44.9689C120.139 50.6499 120.139 57.6314 116.853 63.3124L96.1797 99.0411C92.8938 104.722 86.8698 108.213 80.298 108.213H39.0195C32.4478 108.213 26.4237 104.722 23.1379 99.0411L2.46439 63.3124C-0.821463 57.6314 -0.821463 50.6499 2.46439 44.9689L23.1379 9.17176C26.4237 3.49075 32.4478 0 39.0195 0H80.298C86.8698 0 92.8938 3.49075 96.1797 9.17176ZM39.0195 6.09169C34.6384 6.09169 30.5995 8.4873 28.4089 12.2518L7.73545 47.9805C5.61333 51.745 5.61333 56.4678 7.73545 60.2323L28.4089 95.961C30.5995 99.794 34.6384 102.121 39.0195 102.121H80.298C84.6792 102.121 88.718 99.794 90.9086 95.961L111.582 60.2323C113.773 56.4678 113.773 51.745 111.582 47.9805L90.9086 12.2518C88.718 8.4873 84.6792 6.09169 80.298 6.09169H39.0195Z" fill="url(#paint0_linear_1679_4745)"/>
<defs>
<linearGradient id="paint0_linear_1679_4745" x1="-40416.8" y1="-11877.1" x2="-57169.8" y2="10066.4" gradientUnits="userSpaceOnUse">
<stop stop-color="#11B9BF"/>
<stop offset="1" stop-color="#00ACA8"/>
</linearGradient>
</defs>
</svg>
