<svg width="18" height="19" viewBox="0 0 18 19" fill="none" xmlns="http://www.w3.org/2000/svg">
<path d="M5.25 8.25C5.25 8.05109 5.32902 7.86032 5.46967 7.71967C5.61032 7.57902 5.80109 7.5 6 7.5H8.25V5.25C8.25 5.05109 8.32902 4.86032 8.46967 4.71967C8.61032 4.57902 8.80109 4.5 9 4.5C9.19891 4.5 9.38968 4.57902 9.53033 4.71967C9.67098 4.86032 9.75 5.05109 9.75 5.25V7.5H12C12.1989 7.5 12.3897 7.57902 12.5303 7.71967C12.671 7.86032 12.75 8.05109 12.75 8.25C12.75 8.44891 12.671 8.63968 12.5303 8.78033C12.3897 8.92098 12.1989 9 12 9H9.75V11.25C9.75 11.4489 9.67098 11.6397 9.53033 11.7803C9.38968 11.921 9.19891 12 9 12C8.80109 12 8.61032 11.921 8.46967 11.7803C8.32902 11.6397 8.25 11.4489 8.25 11.25V9H6C5.80109 9 5.61032 8.92098 5.46967 8.78033C5.32902 8.63968 5.25 8.44891 5.25 8.25ZM18 1.5V6.75C18 11.6925 15.6075 14.6878 13.6003 16.3303C11.4384 18.0984 9.28781 18.6994 9.19406 18.7238C9.06516 18.7588 8.92922 18.7588 8.80031 18.7238C8.70656 18.6994 6.55875 18.0984 4.39406 16.3303C2.3925 14.6878 0 11.6925 0 6.75V1.5C0 1.10218 0.158035 0.720644 0.43934 0.43934C0.720644 0.158035 1.10218 0 1.5 0H16.5C16.8978 0 17.2794 0.158035 17.5607 0.43934C17.842 0.720644 18 1.10218 18 1.5ZM16.5 1.5H1.5V6.75C1.5 10.2469 2.79562 13.0791 5.35031 15.1697C6.43805 16.0593 7.6733 16.7513 9 17.2144C10.3443 16.7431 11.595 16.0386 12.6947 15.1331C15.2194 13.0462 16.5 10.2253 16.5 6.75V1.5Z" fill="var(--primary)"/>
</svg>
